<?xml version="1.0" encoding="iso-8859-1"?>
<!-- Generator: Adobe Illustrator 19.0.0, SVG Export Plug-In . SVG Version: 6.00 Build 0)  -->
<svg version="1.1" id="Layer_1" xmlns="http://www.w3.org/2000/svg" xmlns:xlink="http://www.w3.org/1999/xlink" x="0px" y="0px"
	 viewBox="0 0 512.001 512.001" style="enable-background:new 0 0 512.001 512.001;" xml:space="preserve">
<path style="fill:#F77935;" d="M442.45,80.323C397.799,32.887,337.513,4.464,272.698,0.288c-2.239-0.149-4.423,0.642-6.052,2.172
	c-1.631,1.528-2.556,3.664-2.556,5.9v238.283c0,2.822,1.471,5.441,3.882,6.909L471.531,377.5c1.279,0.779,2.736,1.18,4.207,1.18
	c0.724,0,1.452-0.097,2.162-0.294c2.154-0.597,3.964-2.06,5.002-4.04c19.037-36.342,29.099-77.358,29.099-118.613
	C512,190.264,487.3,127.97,442.45,80.323z"/>
<path style="fill:#D9510D;" d="M442.45,80.323C397.799,32.887,337.513,4.464,272.698,0.288c-2.239-0.149-4.423,0.642-6.052,2.172
	c-0.839,0.787-1.488,1.736-1.924,2.775c118.297,23.499,207.472,127.857,207.472,253.057c0,37.714-8.095,73.536-22.637,105.828
	l21.974,13.379c1.279,0.779,2.736,1.18,4.207,1.18c0.724,0,1.452-0.097,2.162-0.294c2.154-0.597,3.964-2.06,5.002-4.04
	c19.037-36.342,29.099-77.358,29.099-118.613C512,190.264,487.3,127.97,442.45,80.323z"/>
<path style="fill:#3FC8F2;" d="M466.808,396.562c-0.456-2.191-1.8-4.095-3.712-5.26L260.211,267.766
	c-2.584-1.573-5.831-1.572-8.416,0.002L48.97,391.404c-1.911,1.165-3.254,3.07-3.709,5.261c-0.455,2.191,0.018,4.473,1.306,6.304
	C94.53,471.072,172.824,511.731,256,511.731c83.225,0,161.545-40.697,209.504-108.865
	C466.792,401.036,467.264,398.754,466.808,396.562z"/>
<path style="fill:#FFDB56;" d="M245.356,2.46c-1.631-1.529-3.822-2.317-6.052-2.172c-64.816,4.176-125.102,32.6-169.752,80.035
	C24.7,127.97,0,190.264,0,255.731c0,41.296,10.083,82.348,29.156,118.721c1.039,1.98,2.849,3.441,5.004,4.038
	c0.71,0.197,1.435,0.293,2.159,0.293c1.471,0,2.93-0.401,4.21-1.182l203.504-124.049c2.408-1.468,3.878-4.085,3.878-6.906V8.359
	C247.912,6.123,246.986,3.988,245.356,2.46z"/>
<path style="fill:#FBA806;" d="M239.303,0.288c-10.754,0.692-21.379,2.068-31.834,4.072v271.482l36.564-22.289
	c2.408-1.468,3.878-4.085,3.878-6.906V8.359c0-2.236-0.925-4.372-2.556-5.9C243.725,0.93,241.534,0.143,239.303,0.288z"/>
<path style="fill:#0DAACE;" d="M463.096,391.303l-20.687-12.596c-35.922,67.945-101.285,117.909-179.11,132.914
	c80.488-2.303,155.651-42.582,202.206-108.754c1.288-1.83,1.76-4.113,1.303-6.304C466.352,394.371,465.007,392.468,463.096,391.303z
	"/>
<g>
</g>
<g>
</g>
<g>
</g>
<g>
</g>
<g>
</g>
<g>
</g>
<g>
</g>
<g>
</g>
<g>
</g>
<g>
</g>
<g>
</g>
<g>
</g>
<g>
</g>
<g>
</g>
<g>
</g>
</svg>
